<mxfile host="65bd71144e" scale="4" border="0">
    <diagram id="uQzkj0GxWRIt09j_zSgi" name="Page-1">
        <mxGraphModel dx="916" dy="1368" grid="1" gridSize="10" guides="1" tooltips="1" connect="1" arrows="1" fold="1" page="1" pageScale="1" pageWidth="583" pageHeight="827" math="0" shadow="0">
            <root>
                <mxCell id="0"/>
                <mxCell id="1" parent="0"/>
                <mxCell id="5" value="" style="group;fontFamily=Courier New;" parent="1" vertex="1" connectable="0">
                    <mxGeometry x="120" y="90" width="110" height="110" as="geometry"/>
                </mxCell>
                <mxCell id="TsMIzAYjtxgP4Rc7lzvC-8" value="Maillon" style="text;html=1;fillColor=#fff2cc;align=center;verticalAlign=middle;whiteSpace=wrap;rounded=0;shadow=1;strokeColor=#000000;fontFamily=Courier New;" parent="5" vertex="1">
                    <mxGeometry x="50" width="60" height="30" as="geometry"/>
                </mxCell>
                <mxCell id="TsMIzAYjtxgP4Rc7lzvC-9" value="valeur" style="text;html=1;strokeColor=none;fillColor=none;align=right;verticalAlign=middle;whiteSpace=wrap;rounded=0;shadow=0;fontFamily=Courier New;" parent="5" vertex="1">
                    <mxGeometry x="-10" y="30" width="60" height="40" as="geometry"/>
                </mxCell>
                <mxCell id="TsMIzAYjtxgP4Rc7lzvC-10" value="suivant" style="text;html=1;strokeColor=none;fillColor=none;align=right;verticalAlign=middle;whiteSpace=wrap;rounded=0;fontFamily=Courier New;" parent="5" vertex="1">
                    <mxGeometry x="-10" y="70" width="60" height="40" as="geometry"/>
                </mxCell>
                <mxCell id="TsMIzAYjtxgP4Rc7lzvC-14" value="" style="rounded=0;whiteSpace=wrap;html=1;shadow=1;fontFamily=Courier New;" parent="5" vertex="1">
                    <mxGeometry x="50" y="30" width="60" height="80" as="geometry"/>
                </mxCell>
                <mxCell id="3" value="1" style="rounded=0;whiteSpace=wrap;html=1;shadow=0;strokeColor=#000000;fontFamily=Courier New;" parent="5" vertex="1">
                    <mxGeometry x="50" y="30" width="60" height="40" as="geometry"/>
                </mxCell>
                <mxCell id="4" value="" style="rounded=0;whiteSpace=wrap;html=1;shadow=0;strokeColor=#000000;fontFamily=Courier New;" parent="5" vertex="1">
                    <mxGeometry x="50" y="70" width="60" height="40" as="geometry"/>
                </mxCell>
                <mxCell id="6" value="" style="group;fontFamily=Courier New;" parent="1" vertex="1" connectable="0">
                    <mxGeometry x="280" y="90" width="110" height="110" as="geometry"/>
                </mxCell>
                <mxCell id="7" value="Maillon" style="text;html=1;fillColor=#fff2cc;align=center;verticalAlign=middle;whiteSpace=wrap;rounded=0;shadow=1;strokeColor=#000000;fontFamily=Courier New;" parent="6" vertex="1">
                    <mxGeometry x="50" width="60" height="30" as="geometry"/>
                </mxCell>
                <mxCell id="8" value="valeur" style="text;html=1;strokeColor=none;fillColor=none;align=right;verticalAlign=middle;whiteSpace=wrap;rounded=0;shadow=0;fontFamily=Courier New;" parent="6" vertex="1">
                    <mxGeometry x="-10" y="30" width="60" height="40" as="geometry"/>
                </mxCell>
                <mxCell id="9" value="suivant" style="text;html=1;strokeColor=none;fillColor=none;align=right;verticalAlign=middle;whiteSpace=wrap;rounded=0;fontFamily=Courier New;" parent="6" vertex="1">
                    <mxGeometry x="-10" y="70" width="60" height="40" as="geometry"/>
                </mxCell>
                <mxCell id="10" value="" style="rounded=0;whiteSpace=wrap;html=1;shadow=1;fontFamily=Courier New;" parent="6" vertex="1">
                    <mxGeometry x="50" y="30" width="60" height="80" as="geometry"/>
                </mxCell>
                <mxCell id="11" value="2" style="rounded=0;whiteSpace=wrap;html=1;shadow=0;strokeColor=#000000;fontFamily=Courier New;" parent="6" vertex="1">
                    <mxGeometry x="50" y="30" width="60" height="40" as="geometry"/>
                </mxCell>
                <mxCell id="12" value="" style="rounded=0;whiteSpace=wrap;html=1;shadow=0;strokeColor=#000000;fontFamily=Courier New;" parent="6" vertex="1">
                    <mxGeometry x="50" y="70" width="60" height="40" as="geometry"/>
                </mxCell>
                <mxCell id="13" value="" style="group;fontFamily=Courier New;" parent="1" vertex="1" connectable="0">
                    <mxGeometry x="440" y="90" width="110" height="110" as="geometry"/>
                </mxCell>
                <mxCell id="14" value="Maillon" style="text;html=1;fillColor=#fff2cc;align=center;verticalAlign=middle;whiteSpace=wrap;rounded=0;shadow=1;strokeColor=#000000;fontFamily=Courier New;" parent="13" vertex="1">
                    <mxGeometry x="50" width="60" height="30" as="geometry"/>
                </mxCell>
                <mxCell id="15" value="valeur" style="text;html=1;strokeColor=none;fillColor=none;align=right;verticalAlign=middle;whiteSpace=wrap;rounded=0;shadow=0;fontFamily=Courier New;" parent="13" vertex="1">
                    <mxGeometry x="-10" y="30" width="60" height="40" as="geometry"/>
                </mxCell>
                <mxCell id="16" value="suivant" style="text;html=1;strokeColor=none;fillColor=none;align=right;verticalAlign=middle;whiteSpace=wrap;rounded=0;fontFamily=Courier New;" parent="13" vertex="1">
                    <mxGeometry x="-10" y="70" width="60" height="40" as="geometry"/>
                </mxCell>
                <mxCell id="17" value="" style="rounded=0;whiteSpace=wrap;html=1;shadow=1;fontFamily=Courier New;" parent="13" vertex="1">
                    <mxGeometry x="50" y="30" width="60" height="80" as="geometry"/>
                </mxCell>
                <mxCell id="18" value="3" style="rounded=0;whiteSpace=wrap;html=1;shadow=0;strokeColor=#000000;fontFamily=Courier New;" parent="13" vertex="1">
                    <mxGeometry x="50" y="30" width="60" height="40" as="geometry"/>
                </mxCell>
                <mxCell id="19" value="&lt;font&gt;None&lt;/font&gt;" style="rounded=0;whiteSpace=wrap;html=1;shadow=0;strokeColor=#000000;fontFamily=Courier New;" parent="13" vertex="1">
                    <mxGeometry x="50" y="70" width="60" height="40" as="geometry"/>
                </mxCell>
                <mxCell id="21" style="edgeStyle=orthogonalEdgeStyle;rounded=0;orthogonalLoop=1;jettySize=auto;html=1;entryX=0;entryY=0.5;entryDx=0;entryDy=0;curved=1;sketch=0;strokeWidth=2;startArrow=oval;startFill=1;sourcePerimeterSpacing=0;fontFamily=Courier New;" parent="1" target="7" edge="1">
                    <mxGeometry relative="1" as="geometry">
                        <mxPoint x="200" y="180" as="sourcePoint"/>
                    </mxGeometry>
                </mxCell>
                <mxCell id="23" style="edgeStyle=orthogonalEdgeStyle;rounded=0;orthogonalLoop=1;jettySize=auto;html=1;entryX=-0.01;entryY=0.413;entryDx=0;entryDy=0;curved=1;sketch=0;strokeWidth=2;startArrow=oval;startFill=1;sourcePerimeterSpacing=-20;entryPerimeter=0;fontFamily=Courier New;" parent="1" target="14" edge="1">
                    <mxGeometry relative="1" as="geometry">
                        <mxPoint x="360" y="180" as="sourcePoint"/>
                        <mxPoint x="340" y="115" as="targetPoint"/>
                    </mxGeometry>
                </mxCell>
                <mxCell id="24" value="lst" style="rounded=0;whiteSpace=wrap;html=1;shadow=0;strokeColor=#000000;labelPosition=left;verticalLabelPosition=middle;align=right;verticalAlign=middle;fontFamily=Courier New;fontStyle=1" parent="1" vertex="1">
                    <mxGeometry x="140" y="-30" width="30" height="30" as="geometry"/>
                </mxCell>
                <mxCell id="28" style="edgeStyle=orthogonalEdgeStyle;curved=1;rounded=0;sketch=0;orthogonalLoop=1;jettySize=auto;html=1;entryX=0;entryY=0.5;entryDx=0;entryDy=0;startArrow=oval;startFill=1;sourcePerimeterSpacing=-20;strokeWidth=2;fontFamily=Courier New;" parent="1" source="24" target="30" edge="1">
                    <mxGeometry relative="1" as="geometry">
                        <mxPoint x="230" y="-15" as="targetPoint"/>
                    </mxGeometry>
                </mxCell>
                <mxCell id="37" value="" style="group" vertex="1" connectable="0" parent="1">
                    <mxGeometry x="170" y="-30" width="100" height="70" as="geometry"/>
                </mxCell>
                <mxCell id="30" value="Liste" style="text;html=1;fillColor=#d5e8d4;align=center;verticalAlign=middle;whiteSpace=wrap;rounded=0;shadow=1;strokeColor=#82b366;fontFamily=Courier New;" vertex="1" parent="37">
                    <mxGeometry x="60" width="40" height="30" as="geometry"/>
                </mxCell>
                <mxCell id="31" value="tete" style="text;html=1;strokeColor=none;fillColor=none;align=right;verticalAlign=middle;whiteSpace=wrap;rounded=0;shadow=0;fontFamily=Courier New;" vertex="1" parent="37">
                    <mxGeometry y="30" width="60" height="40" as="geometry"/>
                </mxCell>
                <mxCell id="33" value="" style="rounded=0;whiteSpace=wrap;html=1;shadow=1;fontFamily=Courier New;" vertex="1" parent="37">
                    <mxGeometry x="60" y="30" width="40" height="40" as="geometry"/>
                </mxCell>
                <mxCell id="34" value="" style="rounded=0;whiteSpace=wrap;html=1;shadow=0;strokeColor=#000000;fontFamily=Courier New;" vertex="1" parent="37">
                    <mxGeometry x="60" y="30" width="40" height="40" as="geometry"/>
                </mxCell>
                <mxCell id="43" style="edgeStyle=orthogonalEdgeStyle;curved=1;rounded=0;sketch=0;orthogonalLoop=1;jettySize=auto;html=1;entryX=0.5;entryY=0;entryDx=0;entryDy=0;shadow=0;startArrow=oval;startFill=1;sourcePerimeterSpacing=-20;strokeWidth=2;" edge="1" parent="1" source="34" target="TsMIzAYjtxgP4Rc7lzvC-8">
                    <mxGeometry relative="1" as="geometry"/>
                </mxCell>
            </root>
        </mxGraphModel>
    </diagram>
</mxfile>